<?xml version="1.0" encoding="utf-8"?>
<!-- Generator: Adobe Illustrator 23.0.2, SVG Export Plug-In . SVG Version: 6.00 Build 0)  -->
<svg version="1.1" xmlns="http://www.w3.org/2000/svg" xmlns:xlink="http://www.w3.org/1999/xlink" x="0px" y="0px"
	 viewBox="0 0 1000 483.8" style="enable-background:new 0 0 1000 483.8;" xml:space="preserve">
<style type="text/css">
	.st0{fill:#71C493;}
	.st1{fill:#BFAE47;}
	.st2{fill:#FFFFFF;}
	.st3{fill:none;stroke:#000000;stroke-miterlimit:10;}
	.st4{fill:none;stroke:#FFFFFF;stroke-width:3;stroke-miterlimit:10;}
	.st5{fill:none;}
	.st6{fill:#FFFFFF;stroke:#999999;stroke-width:0.5;stroke-miterlimit:10;}
	.st7{fill:none;stroke:#FFFFFF;stroke-width:5;stroke-miterlimit:10;}
</style>
<g id="Layer_1">
</g>
<g id="Layer_2">
	<path class="st0" d="M603.3,1301.9c-14.4,0-367.4-25.4-367.4-25.4l-6.8-39.7l-21.4-0.2l-13.1,82.4c0,0,373.4,0.4,410.5,0.4
		c37.1,0,56.2-21.5,65.5-54.2l-14.1,4.8C656.5,1270,633.1,1301.9,603.3,1301.9z"/>
	<text transform="matrix(1 0 0 1 4513.7334 1788.0701)" style="font-family:'FugazOne-Regular'; font-size:300px;">B</text>
	<text transform="matrix(1 0 0 1 4514.9355 1788.0699)" style="opacity:0.5; font-family:'FugazOne-Regular'; font-size:300px;">G</text>
	
		<text transform="matrix(1 0 0 1 4515.084 1788.0703)" style="opacity:0.5;fill:#70C493; font-family:'FugazOne-Regular'; font-size:300px;">S</text>
	<path d="M546.6-821.9v-210h56.7c48.3,0,80.4,7.5,80.4,54c0,18.9-5.4,33.6-17.7,43.8c24.3,9.3,36.6,23.7,36.6,50.4
		c0,48.6-39.9,61.8-75,61.8H546.6z M585-999.2v51.6h37.5c10.8,0,25.5-4.5,25.5-24.6c0-21.9-11.4-27-29.1-27H585z M585-917.3v62.7
		h37.8c24.6,0,40.2-7.5,40.2-31.2c0-24.3-16.5-31.5-38.1-31.5H585z"/>
	<g>
		<path class="st1" d="M747.8-2553.4c5.2-3,7.6-7.2,7.1-12.6c-0.5-6.2-3.4-10.6-8.9-13.3c-5.4-2.7-12.7-3.7-21.9-3l-11.7,0.9
			l2.7,34.4l12.3-1C735.8-2548.6,742.6-2550.4,747.8-2553.4z"/>
		<path class="st1" d="M763.5-2502c-5.5-3.4-12.8-4.7-22-4l-23,1.8l3.2,40.7l23.6-1.8c8.4-0.6,15.1-2.8,20.3-6.4
			c5.1-3.6,7.5-8.6,7-15C772-2493.5,769-2498.6,763.5-2502z"/>
		<path class="st1" d="M849.6-2633.9c-40.4-44.1-48.2-130.2-154.4-103.2s-111.3-27.1-188.3-27.1c-80.4,0-146.3,41.2-208.4,41.5
			s-192.8,85.1-173.5,130.2c19.3,45.1-58.9,203-46.7,277.7s-24.3,163,5.7,184c30,21.1,6.4-167.9,43.1-128
			c36.8,39.8-4.4-106.6-5.6-133.6c-1.2-27,24.3-68.4,37.5-42.8c13.2,25.7,48.4,104.9,16.7,204.8c-12.9,40.8-34.8,227.1-8.9,225.5
			c43.7-2.7,12.4-66,29.3-141.4c37.1-101.6,10-91.3,23.7-144c13.7-52.7,49.5-38.9,59.7,4.3c10.2,43.2,51.5-115.5,54.3,5.6
			c-5.6,68.2,45.9,76,27.8,152.2c-18.1,76.3-10.8,263.3,13.8,242.5s-21-161.6,23.1-87s-9-254.8-0.8-302.7
			c8.1-47.9,69.8-151.1,78.5-114.1c8.7,37-32.9,61.4,8,85.4c40.9,24.1-7.3,137.9,15.8,143.4c23.1,5.5,25.9-107.2,52.4-105.8
			c26.4,1.4-4.2-125.3,24.6-112.6s58.9,30.5,37,100.8c-21.9,70.2-48.6,148.1-21.3,162.2s1.9,191.1,33.4,162.8
			c54.3-48.7-34.8-186.5,25.1-129.4c87.7,62.6,11.4-27.4,33.5-78s-46-57-7-111.6c39-54.7,144.7-20.5,120,28.2
			c-23.3,9.7-61.8,132-33.8,158.7c28,26.8,30.6,123.9,50.1,143.5c19.5,19.7-8.3-115.7,29.6-71.1c38,44.6,17.7-167,63.7-237.1
			C953.4-2320.1,920.4-2556.4,849.6-2633.9z M347.3-2481.7c-13.2,5.5-24.9,9.4-35.1,11.6c-32.5,7-59.3,3.4-80.5-10.9
			c-21.2-14.3-35.3-37.6-42.3-70.1c-7-32.6-2.9-60.3,12.5-82.9c15.4-22.6,37.8-37.2,67.3-43.5c10-2.2,21.6-3.2,34.8-3.1
			c13.2,0.1,24.3,2,33.3,5.6l-8.1,39.5c-11.4-1.4-20.9-1.9-28.5-1.4c-7.7,0.5-14.8,1.5-21.5,2.9c-11.9,2.6-21.8,9.9-29.6,22
			c-7.8,12.1-9.5,28.4-5.2,48.7c4.6,21.5,12.6,35.7,23.9,42.7c11.3,7,23.2,9.1,35.8,6.4c2.7-0.6,5.7-1.4,8.8-2.4
			c3.2-1,6.3-2.1,9.5-3.4l-7.4-34.3l-34.3,7.4l-13.1-38l87.1-18.8l22.5,104.1C370.6-2493.1,360.6-2487.2,347.3-2481.7z M515-2586.9
			c5.3,4.5,11.6,9.8,18.9,15.8c12.6,10.2,24.2,22.2,35.1,35.9c10.8,13.7,14.5,28.7,11.1,44.9c-3.5,16.8-13.6,29.3-30.1,37.5
			c-16.5,8.2-37.1,9.7-61.8,4.5c-10.2-2.1-21.4-6.1-33.5-11.8c-12.2-5.7-21.7-11.8-28.5-18.1l26.1-36.5c4.4,4.2,11,8.6,19.8,13.2
			c8.7,4.6,16.7,7.7,24,9.2c8.4,1.8,15.2,1.5,20.3-0.9c5.1-2.4,8-5.5,8.8-9.2c0.7-3.5-1.7-8-7.3-13.5s-11.8-10.9-18.7-16.2
			c-11.9-9.5-23.4-20.9-34.5-34.4c-11.1-13.5-14.8-28.7-11.2-45.7c3.7-16.4,13.3-28.6,28.9-36.7c15.6-8.1,34.7-9.7,57.4-4.9
			c10,2.1,20,5.7,30.1,10.8c10.1,5.1,18.5,11.1,25.2,18l-23.5,32.8c-9.8-5.9-17.3-10-22.6-12.3c-5.3-2.2-11.2-4-17.9-5.4
			c-6.1-1.3-11.2-0.9-15.3,1.2c-4.1,2.1-6.6,5-7.4,8.7C507.5-2595.8,509.7-2591.4,515-2586.9z M805.9-2440
			c-17.1,10-36.6,15.8-58.5,17.5l-76.9,6l-15.8-203.4l67.9-5.3c22.3-1.7,42.2,1.3,59.7,9.2c17.5,7.9,27,22.2,28.6,42.9l0.1,1.5
			c0.4,7.2-0.7,13.8-3.1,20c-2.4,6.1-5.8,11.6-10,16.6c8.4,5,15.5,11.3,21.2,19c5.7,7.7,8.9,16.4,9.7,26.2
			C830.6-2466.6,823-2450,805.9-2440z"/>
	</g>
	<g>
		<path class="st1" d="M1796.1-2364.1c5.2-3,7.6-7.2,7.1-12.6c-0.5-6.2-3.4-10.6-8.9-13.3c-5.4-2.7-12.7-3.7-21.9-3l-11.7,0.9
			l2.7,34.4l12.3-1C1784.2-2359.3,1791-2361.1,1796.1-2364.1z"/>
		<path class="st1" d="M1811.9-2312.7c-5.5-3.4-12.8-4.7-22-4l-23,1.8l3.2,40.7l23.6-1.8c8.4-0.6,15.1-2.8,20.3-6.4
			c5.1-3.6,7.5-8.6,7-15C1820.4-2304.2,1817.4-2309.3,1811.9-2312.7z"/>
		<path class="st1" d="M2023.8-2333.5c0,0-23.3-30-23.3-68.3s-35-58.3-35-99c20-54.3-11.1-69.5,46.6-92.6s69.7-112.1,41.5-117
			s-49.1,15.1-69.1,81.7c-20,66.6-37.6,71.5-56.4,83.7c-18.8,12.2-86.2,72.5-117.7,49.6c-31.5-22.9-14.4-60.1-7.8-86.7
			c6.7-26.7,6.2-136.2-32.1-124.5c-38.3,11.7-13.5,60.3,0.9,84.8c14.4,24.5,24.2,78.9-26.3,95.3c-28.4,9.3-35.4,31.2-61.9,39.7
			c-26.5,8.5-35.5-29.5-53.6-16s-48-5.5-28.8-38.2s11.3-65.4-32.7-62c-44,3.4-15.6,31.6,1.1,44c16.8,12.4-20.7,88.8-48.1,48.3
			c-27.4-40.5-67.7-72-89-70.3c-26.7,2.2-64.9,10.8-88.1,4.3c-41.6-11.8-69.5-75.1-43.3-121.6c26.2-46.5-31.8-70-46.1-62.5
			c-34.6,18.4,19.1,58.9-2.2,104.1c-21.4,45.2,36.9,77.3,8.3,93.3s-88.9,16.3-86.6,48.3c2.3,32,20.1,71.9,8.3,116.6
			c-11.8,44.7-35.7,29.3-35.7,190.3s48.5,40.1,16.7,244.9c-49.3,172.2,67.1-40.8,52.4-104.8c-14.7-64,10.3-89.1,3.3-118.9
			c-26.4-112.3,2.8-117.7,27.5-82c24.7,35.7,89.1,135.3,65.8,186.9s-61.6,68.3-68.3,113.3c-6.7,45-16.7,127.1,21.7,99.9
			c38.3-27.2,30-104.9,61.6-84.9c31.6,20,31.7-73.4,73.3-114.4c41.6-41,50.4-8.1,71.5,28.4c21.1,36.5,82.9,16,77.9,46
			s-0.4,84.9,17.9,86.6c18.3,1.7,36.8-25.4,15.4-60c-21.4-34.6,5-63.3,37.6-49c32.6,14.3,36.2-29.2,66.2-54.1c30-25,60-25,38.3,30
			s0,48.3,8.3,78.3s-11.7,70,16.7,81.6c28.3,11.7-7-112.8,11.5-129.3c58.3-38.3,24.4-57.5,74.3-57.5s75.8,73.5,67.4,145.2
			c-8.3,71.6,20,75.5,35,33.3c15-42.2-30-89.9,0-126.6c30-36.7-16.7-25-36.6-75c-20-50,1.7-188.2,26.7-198.2s78.3,53.3,50,111.6
			c-28.3,58.3,31.6,30,30,99.9c-1.7,70-1.7,196.6,16.7,196.6c7.5,0,35.1-98.3,16.1-162.3c-19.1-64,5.6-87.6,12.2-172.6
			C2060.4-2300.5,2023.8-2333.5,2023.8-2333.5z M1422.4-2314.9c-13.2,5.5-24.9,9.4-35.1,11.6c-32.5,7-59.3,3.4-80.5-10.9
			c-21.2-14.3-35.3-37.6-42.3-70.1c-7-32.6-2.9-60.3,12.5-82.9c15.4-22.6,37.8-37.2,67.3-43.5c10-2.2,21.6-3.2,34.8-3.1
			c13.2,0.1,24.3,2,33.3,5.6l-8.1,39.5c-11.4-1.4-20.9-1.9-28.5-1.4c-7.7,0.5-14.8,1.5-21.5,2.9c-11.9,2.6-21.8,9.9-29.6,22
			c-7.8,12.1-9.5,28.4-5.2,48.7c4.6,21.5,12.6,35.7,23.9,42.7c11.3,7,23.2,9.1,35.8,6.4c2.7-0.6,5.7-1.4,8.8-2.4
			c3.2-1,6.3-2.1,9.5-3.4l-7.4-34.3l-34.3,7.4l-13.1-38l87.1-18.8l22.5,104.1C1445.7-2326.4,1435.7-2320.4,1422.4-2314.9z
			 M1612.3-2300.8c-9.8-5.9-17.3-10-22.6-12.3c-5.3-2.2-11.2-4-17.9-5.4c-6.1-1.3-11.2-0.9-15.3,1.2c-4.1,2.1-6.6,5-7.4,8.7
			c-0.9,4.3,1.3,8.7,6.6,13.2c5.3,4.5,11.6,9.8,18.9,15.8c12.6,10.2,24.2,22.2,35.1,35.9c10.8,13.7,14.5,28.7,11.1,44.9
			c-3.5,16.8-13.6,29.3-30.1,37.5c-16.5,8.2-37.1,9.7-61.8,4.5c-10.2-2.1-21.4-6.1-33.5-11.8c-12.2-5.7-21.7-11.8-28.5-18.1
			l26.1-36.5c4.4,4.2,11,8.6,19.8,13.2c8.7,4.6,16.7,7.7,24,9.2c8.4,1.8,15.2,1.5,20.3-0.9c5.1-2.4,8-5.5,8.8-9.2
			c0.7-3.5-1.7-8-7.3-13.5s-11.8-10.9-18.7-16.2c-11.9-9.5-23.4-20.9-34.5-34.4c-11.1-13.5-14.8-28.7-11.2-45.7
			c3.7-16.4,13.3-28.6,28.9-36.7c15.6-8.1,34.7-9.7,57.4-4.9c10,2.1,20,5.7,30.1,10.8c10.1,5.1,18.5,11.1,25.2,18L1612.3-2300.8z
			 M1854.3-2250.7c-17.1,10-36.6,15.8-58.5,17.5l-76.9,6l-15.8-203.4l67.9-5.3c22.3-1.7,42.2,1.3,59.7,9.2
			c17.5,7.9,27,22.2,28.6,42.9l0.1,1.5c0.4,7.2-0.7,13.8-3.1,20c-2.4,6.1-5.8,11.6-10,16.6c8.4,5,15.5,11.3,21.2,19
			c5.7,7.7,8.9,16.4,9.7,26.2C1879-2277.2,1871.4-2260.6,1854.3-2250.7z"/>
	</g>
	<g>
		<path class="st1" d="M4298.8-1606.8c17.6-23.2,14.3-64.3-33.4-107c-39.2-35.2-77.6-63.6-77.6-63.6s-33.1-52.1,48.8-57.6
			c87.2-5.9,14.8-116.7-20.7-26.6c-19.8,50.4-70.2,29.3-98.8,22.9c-28.6-6.4-7.6-32.9-30.6-50.1c-64.4-48-35.2-58-37.9-120.6
			c-2.7-62.5-97.1-46.1-35.6,33c58.8,75.6-17.7,83.1-31.7,86.5c-50.5,12.1-79.2-29.2-123.9-30.9c-59.8-2.3-109.4-13.4-95.4-93.8
			c10.3-99.2-128.2-38.4-58,17.8c86.1,69.2,52.7,123.7,9.2,134.8c-43.6,11.1-37.8,38.7-63.5,56.5c-89.2,61.7-125.7-87.7-174.4-149.5
			c-48.7-61.8-118.7,14.9-50.1,46.8c68.6,31.9,171.3,130.5,123.6,200.5c-11.1,17-16,32.3-36.2,90.2c-20.2,57.9-49.5-26.6-87.3-76.6
			c-37.8-50-77.1,25.1-17.4,42c59.7,16.9,66.6,70.7,83,121.7c16.3,50.9,65,18.5,65,62c0,18.6-45.4,96.3-56.6,1.1
			c-11.2-95.2-105.3-39-29,24.6c76.3,63.6,41,53.2,81.7,74.4c40.7,21.2,74.5,16.1,52.4,70.8c-22.2,54.7,62.7,83.2,31-3
			c-31.7-86.2,27.2-30.7,62.3-31.3c35.1-0.5,37.5-21.3,83.3,1.4c45.8,22.7,40.7,30.2,63.3,25.8c38.4-7.4,69.8,47.4,99.2,47.4
			c29.5,0,28.3-26.9,60.7-42.8c32.4-15.9,24.9-29.6,62.5-30.9c37.6-1.3,31.3,26,58.5,24.1c27.1-1.9,26.6-2.6,35.9-29.7
			c9.4-27.1,0.5-47,0.5-47s-3.1-64.9,19.1-67.9c22.2-3,47.4,42.8,74,75.3s73.9-11.8,8.9-41.4c-65-29.5-34.3-60.6-32.5-69.4
			c14.8-70.9,52.9-1.7,85.7-16.3C4339.2-1513.5,4266.7-1564.5,4298.8-1606.8z"/>
	</g>
	<text transform="matrix(1 0 0 1 2406.9292 -821.8821)" style="font-family:'Raleway-Thin'; font-size:300px;">GSB</text>
	<path class="st2" d="M411-833l4.5-43.8c11.4,11.1,34.5,22.2,66,22.2c22.5,0,37.5-5.7,37.5-22.8c0-21.3-23.4-28.8-48.9-37.5
		c-29.7-10.2-62.1-20.7-62.1-58.2c0-27.9,19.2-63,75.9-63c28.8,0,56.1,9,66.9,16.2l-3.9,39.3c-22.5-12.3-41.4-18.9-61.5-18.9
		c-16.2,0-38.4,4.2-38.4,22.2c0,16.8,19.5,23.4,42.3,30.3c32.7,9.9,72.6,21.9,72.6,68.1c0,24-10.5,61.2-81.3,61.2
		C448.8-817.7,423-825.2,411-833z"/>
	<g>
		<path class="st1" d="M4292.8,328c-2-2.3-4.3-4.1-6.9-5.5c-2.7-1.3-5.6-2-8.8-2h-56.5v49.9h54.7c3.4,0,6.5-0.6,9.5-1.9
			c2.9-1.2,5.5-3,7.6-5.2c2.1-2.2,3.8-4.8,5.1-7.9c1.2-3,1.9-6.2,1.9-9.6c0-3.4-0.6-6.6-1.7-9.7C4296.3,333,4294.7,330.3,4292.8,328
			z"/>
		<path class="st1" d="M4285.5,285.1c4.4-4.3,6.5-10.1,6.5-17.6c0-7.3-2-13.1-6-17.3c-4-4.3-8.9-6.4-14.8-6.4h-50.7v47.7h49.1
			C4275.8,291.5,4281.1,289.3,4285.5,285.1z"/>
		<path class="st1" d="M4462.2,314c17.6-23.2,14.3-64.3-33.4-107c-39.2-35.2-77.6-63.6-77.6-63.6s-33.1-52.1,48.8-57.6
			c87.2-5.9,14.8-116.7-20.7-26.6c-19.8,50.4-70.2,29.3-98.8,22.9c-28.6-6.4-7.6-32.9-30.6-50.1c-64.4-48-35.2-58-37.9-120.6
			c-2.7-62.5-97.1-46.1-35.6,33c58.8,75.6-17.7,83.1-31.7,86.5c-50.5,12.1-79.2-29.2-123.9-30.9c-59.8-2.3-109.4-13.4-95.4-93.8
			c10.3-99.2-128.2-38.4-58,17.8c86.1,69.2,52.7,123.7,9.2,134.8c-43.6,11.1-37.8,38.7-63.5,56.5c-89.2,61.7-125.7-87.7-174.4-149.5
			c-48.7-61.8-118.7,14.9-50.1,46.8c68.6,31.9,171.3,130.5,123.6,200.5c-11.1,17-16,32.3-36.2,90.2s-49.5-26.6-87.3-76.6
			c-37.8-50-77.1,25.1-17.4,42c59.7,16.9,66.6,70.7,83,121.7c16.3,50.9,65,18.5,65,62c0,18.6-45.4,96.3-56.6,1.1s-105.3-39-29,24.6
			c76.3,63.6,41,53.2,81.7,74.4c40.7,21.2,74.5,16.1,52.4,70.8c-22.2,54.7,62.7,83.2,31-3c-31.7-86.2,27.2-30.7,62.3-31.3
			s37.5-21.3,83.3,1.4c45.8,22.7,40.7,30.2,63.3,25.8c38.4-7.4,69.8,47.4,99.2,47.4c29.5,0,28.3-26.9,60.7-42.8
			c32.4-15.9,24.9-29.6,62.5-30.9c37.6-1.3,31.3,26,58.5,24.1c27.1-1.9,26.6-2.6,35.9-29.7c9.4-27.1,0.5-47,0.5-47
			s-3.1-64.9,19.1-67.9s47.4,42.8,74,75.3c26.6,32.5,73.9-11.8,8.9-41.4c-65-29.5-34.3-60.6-32.5-69.4c14.8-70.9,52.9-1.7,85.7-16.3
			C4502.6,407.4,4430.1,356.3,4462.2,314z M3935.5,401.6h-30.4v-21.3c-15.1,15.1-32.7,22.7-52.8,22.7c-12.4,0-24.1-2.5-35.1-7.5
			c-10.9-5-20.4-11.8-28.5-20.5c-8.1-8.7-14.5-19-19.2-30.8c-4.7-11.8-7.1-24.6-7.1-38.3c0-13,2.4-25.2,7.1-36.7
			c4.7-11.5,11.2-21.5,19.5-30.1c8.3-8.6,18-15.5,29.2-20.5c11.2-5.1,23.4-7.6,36.5-7.6c17.8,0,33,3.7,45.7,11.2
			c12.7,7.5,22.3,17.5,28.7,30.1l-27.5,20.3c-4.8-9.4-11.5-16.6-20.1-21.6c-8.6-5-18-7.5-28.1-7.5c-8,0-15.3,1.7-22,5.1
			c-6.7,3.4-12.4,8-17.1,13.9c-4.7,5.9-8.4,12.6-10.9,20.3c-2.6,7.6-3.9,15.7-3.9,24.3c0,8.9,1.4,17.2,4.3,24.9
			c2.8,7.7,6.8,14.4,11.7,20.1c5,5.7,10.9,10.2,17.7,13.5c6.8,3.3,14.3,4.9,22.3,4.9c18.3,0,34.8-8.6,49.6-25.9v-13.3H3867v-26.9
			h68.5V401.6z M4123.6,373.5c-3.8,7.2-9,13-15.5,17.5c-6.5,4.4-14,7.7-22.4,9.7c-8.4,2-17.3,3.1-26.5,3.1
			c-14.2,0-28.3-2.1-42.1-6.4c-13.9-4.3-26.3-10.3-37.3-18.1l16.3-31.7c1.6,1.6,4.5,3.7,8.7,6.3c4.2,2.6,9.1,5.2,14.8,7.7
			c5.7,2.6,12,4.8,18.9,6.5c6.9,1.8,14,2.7,21.3,2.7c20.3,0,30.4-6.5,30.4-19.5c0-4.1-1.2-7.6-3.5-10.4c-2.3-2.8-5.6-5.3-9.9-7.5
			c-4.3-2.1-9.4-4.1-15.5-5.9c-6-1.8-12.8-3.7-20.3-5.9c-9.1-2.5-16.9-5.2-23.6-8.1c-6.7-2.9-12.2-6.4-16.7-10.4
			c-4.4-4-7.8-8.6-10-13.9c-2.2-5.2-3.3-11.5-3.3-18.8c0-9.6,1.8-18.1,5.3-25.6c3.6-7.5,8.5-13.7,14.8-18.7c6.3-5,13.6-8.8,22-11.3
			c8.4-2.6,17.3-3.9,26.9-3.9c13.3,0,25.6,2.1,36.8,6.3c11.2,4.2,21,9.1,29.3,14.8l-16.3,29.9c-1.2-1.2-3.5-2.9-6.8-5.1
			c-3.3-2.1-7.3-4.2-12-6.3c-4.7-2-9.8-3.8-15.3-5.2c-5.5-1.4-11.1-2.1-16.8-2.1c-10.1,0-17.7,1.9-22.7,5.6c-5,3.7-7.5,9-7.5,15.7
			c0,3.9,0.9,7.2,2.8,9.7c1.9,2.6,4.6,4.8,8.1,6.8c3.6,2,8,3.7,13.5,5.3c5.4,1.6,11.7,3.3,18.8,5.1c9.2,2.5,17.6,5.2,25.2,8
			c7.6,2.8,14,6.4,19.2,10.7c5.2,4.3,9.3,9.4,12.1,15.3c2.8,6,4.3,13.3,4.3,22C4129.3,357.6,4127.4,366.3,4123.6,373.5z
			 M4331.4,373.9c-3.2,6-7.6,11.1-13.2,15.2c-5.6,4.1-12.1,7.2-19.5,9.3c-7.4,2.1-15.2,3.2-23.6,3.2h-91.5V212.3h101.3
			c6.6,0,12.5,1.4,17.9,4.3c5.3,2.8,9.9,6.5,13.6,11.1c3.7,4.5,6.6,9.7,8.7,15.5c2,5.8,3.1,11.6,3.1,17.5c0,9.2-2.3,17.9-6.9,26
			c-4.6,8.1-11.4,14.1-20.3,18c10.8,3.2,19.4,8.9,25.7,17.2c6.3,8.3,9.5,18.6,9.5,31.1C4336.2,360.8,4334.6,367.8,4331.4,373.9z"/>
	</g>
	<g>
		<path class="st1" d="M5418.9,320.4c-5.5-0.7-10.7-0.7-15.6,0.1c-4.9,0.8-9.7,1.9-14.2,3.3c-4.5,1.4-9,2.4-13.5,3.1
			c-2.3,5.9-4.6,12.4-7,19.5c-2.4,7.1-4.8,14.1-7,20.8c6.2-0.9,12-2.2,17.2-3.9c5.2-1.7,10.2-3.7,15.1-5.9c4.9-2.2,9.6-4.3,14.3-6.5
			c4.7-2.2,9.5-4.2,14.6-6.1c0.5-2.1,1.6-3.7,3.4-4.9c1.7-1.2,3.5-2.4,5.2-3.5c1.7-1.1,3.2-2.4,4.4-3.8c1.2-1.4,1.6-3.3,1.3-5.7
			C5430.4,323.2,5424.4,321.1,5418.9,320.4z"/>
		<path class="st1" d="M5380,275.1c8.3-3.3,15.6-7.5,21.9-12.6c6.2-5.1,11.9-10.8,16.9-17.1c-10.8-0.3-21.4,0.6-31.8,2.9
			c-10.4,2.3-19.2,5.6-26.3,9.9c3.5,3,7.1,5.6,10.8,7.8C5375.3,268.2,5378.1,271.2,5380,275.1z"/>
		<path class="st1" d="M5583.8,314c17.6-23.2,14.3-64.3-33.4-107c-39.2-35.2-77.6-63.6-77.6-63.6s-33.1-52.1,48.8-57.6
			c87.2-5.9,14.8-116.7-20.7-26.6c-19.8,50.4-70.2,29.3-98.8,22.9c-28.6-6.4-7.6-32.9-30.6-50.1c-64.4-48-35.2-58-37.9-120.6
			c-2.7-62.5-97.1-46.1-35.6,33c58.8,75.6-17.7,83.1-31.7,86.5c-50.5,12.1-79.2-29.2-123.9-30.9c-59.8-2.3-109.4-13.4-95.4-93.8
			c10.3-99.2-128.2-38.4-58,17.8c86.1,69.2,52.7,123.7,9.2,134.8c-43.6,11.1-37.8,38.7-63.5,56.5c-89.2,61.7-125.7-87.7-174.4-149.5
			s-118.7,14.9-50.1,46.8c68.6,31.9,171.3,130.5,123.6,200.5c-11.1,17-16,32.3-36.2,90.2s-49.5-26.6-87.3-76.6s-77.1,25.1-17.4,42
			c59.7,16.9,66.6,70.7,83,121.7c16.3,50.9,65,18.5,65,62c0,18.6-45.4,96.3-56.6,1.1s-105.3-39-29,24.6c76.3,63.6,41,53.2,81.7,74.4
			c40.7,21.2,74.5,16.1,52.4,70.8c-22.2,54.7,62.7,83.2,31-3c-31.7-86.2,27.2-30.7,62.3-31.3s37.5-21.3,83.3,1.4
			c45.8,22.7,40.7,30.2,63.3,25.8c38.4-7.4,69.8,47.4,99.2,47.4c29.5,0,28.3-26.9,60.7-42.8c32.4-15.9,24.9-29.6,62.5-30.9
			c37.6-1.3,31.3,26,58.5,24.1c27.1-1.9,26.6-2.6,35.9-29.7c9.4-27.1,0.5-47,0.5-47s-3.1-64.9,19.1-67.9c22.2-3,47.4,42.8,74,75.3
			c26.6,32.5,73.9-11.8,8.9-41.4c-65-29.5-34.3-60.6-32.5-69.4c14.8-70.9,52.9-1.7,85.7-16.3C5624.2,407.4,5551.7,356.3,5583.8,314z
			 M5089.7,344.3c-3.3,5.9-7.3,10.9-12,15c-4.7,4.1-9.9,7.6-15.8,10.5c-5.8,3-12,5.4-18.6,7.4c-6.6,2-13.4,3.9-20.3,5.7
			c-6.9,1.8-13.9,3.7-21,5.7c-7,2-13.9,4.3-20.7,6.9c-3,0-5.5,0.1-7.6,0.3c-2.1,0.2-4.1,0.4-6,0.8c-1.9,0.3-3.8,0.7-5.7,1
			c-1.9,0.4-4,0.6-6.2,0.8c-0.9-0.2-1.4,0-1.7,0.5c-0.3,0.5-0.7,1-1.2,1.3c-3.5,0.5-6.6,0.8-9.4,0.8c-2.8,0-5.1,0-7,0
			c-2.4,0-4.9,0.3-7.6,1c-2.6,0.7-5,1-7.3,0.8c-15.6-0.7-27.9-6.2-36.7-16.7c-8.9-10.4-13.7-24.7-14.6-43c0.2-0.9,0-1.4-0.5-1.7
			c-0.5-0.3-1-0.6-1.3-0.9c0-1.9,0.3-3.6,0.8-5.2c0.5-1.6,0.6-3.6,0.3-6c5.4-11.5,11.5-22.1,18.4-31.9c6.9-9.8,15.1-18.4,24.6-25.9
			c1.6-1.2,2.8-2.5,3.8-3.8c1-1.3,1.9-2.6,2.9-3.8c1-1.2,2-2.3,3.3-3.3c1.2-1,2.8-1.6,4.7-2c4.3-5,9.5-9.6,15.6-13.8
			c6.1-4.2,12.4-8.2,19-12c6.6-3.8,13.2-7.7,19.9-11.7c6.7-4,12.7-8.3,18.1-13c1.9,1.2,3.4,1.6,4.6,1.2c1.1-0.4,2.3-0.5,3.5-0.1
			c1.6,3.3,3.6,5.6,6.1,6.9c2.5,1.3,5.1,2.6,7.8,3.9c2.7,1.3,5.2,2.9,7.6,4.7c2.3,1.8,4.1,4.3,5.3,7.4c-1.2,0-1.8,0.4-1.7,1.3
			c0.1,0.9,0.3,1.8,0.7,2.9c0.3,1,0.5,2,0.5,2.9c0,0.9-0.8,1.3-2.3,1.3c0,1.2,0.6,1.8,1.8,1.8c1.2,0,1.8,0.6,1.8,1.8
			c0,1-0.2,1.9-0.7,2.5c-0.4,0.6-0.5,1.6-0.1,3c-4.2,2.8-8.8,5.4-13.9,7.9c-5.1,2.5-10.5,5.2-16.1,7.9c-5.6,2.8-11.4,5.8-17.2,9
			c-5.8,3.2-11.6,6.9-17.3,11.1s-11.5,8.8-17.3,13.8c-5.8,5-11.4,10.4-16.8,16c-5.4,5.6-10.4,11.5-15.1,17.4
			c-4.7,6-8.7,11.8-12,17.6c0.3,0.9,0.8,1.7,1.4,2.3c0.6,0.7,1.1,1.5,1.4,2.3c6.6,0.3,12.8,0.3,18.5-0.1c5.7-0.4,11.5,0,17.2,1.2
			c0.7-0.5,1.1-1.2,1.3-2.1c0.2-0.9,0.7-1.5,1.6-1.8c11.8-1.2,22.8-3.2,33.1-5.9c10.2-2.7,20.7-5.4,31.2-8.2
			c-3.1-1.2-5.9-2.2-8.3-2.9c-1-1-1-2,0.1-2.7c1.1-0.8,2-1.6,2.7-2.5c-2.8-1.6-5.1-3.6-6.9-6.2c-1.8-2.6-2.9-6-3.3-10.2
			c1.2-1,1.8-2.3,1.8-3.6c0-1.4-0.6-2.5-1.8-3.4c-0.9-0.3-1.4-0.3-1.6,0c-0.2,0.3-0.3,0.7-0.4,1c-0.1,0.4-0.3,0.7-0.5,1
			c-0.3,0.3-0.7,0.3-1.4,0c0.2-1.9,0.6-3.5,1.3-4.7c0.7-1.2,1.2-2.7,1.6-4.4l21.6-14.3c2.3,1.7,5,3.6,8.3,5.5
			c3.3,1.9,6.8,3.8,10.4,5.7c3.6,1.9,7.4,3.9,11.2,5.9c3.8,2,7.4,4,10.7,5.9c3.1,1.4,5.8,3.1,8.1,5.1c2.3,2,4.4,4.1,6.5,6.2
			c2.1,2.2,4.2,4.3,6.2,6.4s4.6,3.8,7.6,5.2c-0.3,2.8-0.2,5,0.5,6.8C5089.9,339.8,5090.1,341.9,5089.7,344.3z M5283.6,249.3
			c-1.9,1.4-3.9,2.8-6,4.2c-2.1,1.4-4.3,2.7-6.5,3.9c-7.8-1.9-15.6-2.6-23.4-2.1c-7.8,0.5-14.8,1.1-21.1,1.8c-1.9-2.1-4.2-3.1-6.8-3
			c-2.6,0.1-5.3,0.5-8.2,1.3c-2.9,0.8-5.7,1.6-8.5,2.3c-2.8,0.8-5.4,1-7.8,0.7c-1.9,1.7-4.4,2.9-7.6,3.5c-3.1,0.6-6.4,1.1-9.9,1.4
			c-0.2,0.9,0,1.5,0.5,1.8c0.5,0.4,0.6,1,0.3,2.1c1.2,1.6,2.9,2.6,4.9,3.3c2.1,0.6,4.2,1.2,6.4,1.7c2.2,0.5,4.1,1.3,5.9,2.2
			c1.7,1,2.9,2.5,3.4,4.6c3.1,0.2,5.8,1,8.1,2.5c2.3,1.5,4.2,3.3,5.7,5.3c1.6,2.1,2.7,4.3,3.4,6.6c0.7,2.3,1,4.5,0.8,6.4
			c0.7,1.7,1.4,2.4,2.2,2.1c0.8-0.3,1.7,0.1,2.7,1.3c0.7,2.6,2.3,5.3,4.8,8.2c2.5,2.9,4.5,5.9,5.9,9.2c0.3,5.2,0.7,9.9,0.9,14.1
			c0.3,4.2-0.5,8.2-2.2,12.2c-3,7.6-7.2,14.5-12.8,20.6c-5.6,6.1-11.8,11.4-18.9,16c-7,4.6-14.5,8.6-22.3,12
			c-7.8,3.4-15.5,6.2-23.2,8.5c-0.7-0.2-1.5-0.2-2.5,0c-1,0.2-1.2-0.3-0.7-1.6c-1.6,1.4-3.3,2.3-5.3,2.6c-2,0.3-4.2,0.5-6.5,0.4
			c-2.3-0.1-4.7-0.2-7-0.4c-2.3-0.2-4.6-0.1-6.9,0.3c-1.4-1.4-2.6-2.8-3.8-4.2c-1.1-1.4-2-3-2.7-4.9c-0.9-0.2-1.3-0.7-1.2-1.7
			c0.1-1-0.3-1.4-1.2-1.4c0-0.7,0.1-1.2,0.3-1.6c0.2-0.3,0.3-0.7,0.5-1c0.7-0.5,1-0.9,0.9-1.2c-0.1-0.3-0.4-0.5-0.8-0.8
			c-0.4-0.3-0.9-0.6-1.3-0.9c-0.4-0.3-0.6-0.8-0.4-1.3c0.9-1.6,1.2-3.4,0.9-5.6c-0.3-2.2-0.5-4.4-0.7-6.6c-0.2-2.3,0-4.4,0.5-6.4
			c0.5-2,2-3.7,4.4-5.1c7.1,0.7,13.8,0.3,20.2-1c6.3-1.4,12.3-3.3,18-5.7c5.6-2.4,11-5.1,16.1-7.9c5.1-2.9,10.1-5.5,15-7.9
			c0.5-1.7,1.3-3.2,2.5-4.4c1.1-1.2,2.3-2.4,3.5-3.5c1.2-1.1,2.3-2.3,3.4-3.6c1-1.3,1.8-2.9,2.3-4.8c0.2-0.7,0.2-1.2,0-1.6
			c-0.2-0.3-0.4-0.7-0.8-0.9c-0.4-0.3-0.7-0.6-1-0.9c-0.3-0.3-0.5-0.9-0.5-1.6c-0.5-0.2-1-0.3-1.4-0.5c-0.4-0.2-0.8-0.3-1.2-0.3
			c-4.5-2.3-9.3-4.2-14.3-5.7c-5-1.6-9.3-3.3-12.8-5.2c-2.1,1.4-4.2,1.7-6.2,1c-2.1-0.7-4.6-1.4-7.6-2.1c-7.3-0.3-14.2-1-20.7-2.1
			c-6.5-1-12.8-2.9-18.9-5.5c-0.3-1-0.8-2-1.3-2.7c-0.5-0.8-1.7-1-3.6-0.7c-1.2-1.7-2.5-3.3-3.8-4.8c-1.3-1.5-2.5-3.2-3.5-5.1
			c0.5-2.6,0.9-4.7,1-6.4c0.2-1.6-0.4-3.4-1.8-5.3c0.7-2.8,1.3-4.9,1.7-6.5c0.4-1.6,0.5-3.7,0.1-6.5c1.6-4.5,3.9-8.3,7.2-11.5
			c3.2-3.1,6.7-5.8,10.5-7.9c3.8-2.2,7.8-4,12-5.5c4.2-1.5,8.1-2.7,11.7-3.8c0-0.7-0.4-1-1-1c-0.7,0-0.9-0.4-0.5-1.3
			c9.4-1.7,18.8-4.3,28.3-7.6c9.5-3.3,19.1-6.2,29-8.9c9.9-2.6,20-4.2,30.5-4.8c10.4-0.6,21.4,0.7,32.8,4c0.7,2.1,1.6,4.1,2.9,6
			c1.2,1.9,2.5,3.8,3.8,5.6s2.5,3.6,3.5,5.3c1,1.7,1.6,3.6,1.8,5.5c2.1,1.9,3.8,4,5.1,6.1C5284.2,242.7,5284.5,245.6,5283.6,249.3z
			 M5475.8,356.3c-3.8,4.7-6.4,8-7.8,9.9c-1.4,1.9-2.4,3.3-3.1,4.2c-0.7,0.9-1.4,1.7-2.1,2.3c-0.7,0.7-2.3,2.1-4.7,4.2
			c-9.2,5.6-18.8,10.5-28.8,15c-10,4.4-20.4,7.4-31.1,9c-0.9,1.2-2.1,2.2-3.8,3c-1.7,0.8-3.5,1.4-5.6,2c-2.1,0.5-4.3,1-6.6,1.3
			c-2.3,0.3-4.5,0.7-6.4,1c-0.9-0.3-1.3-0.9-1.4-1.7c-0.1-0.8-0.6-1.3-1.4-1.7c-0.2,2.1-1.1,3.2-2.7,3.3c-1.7,0.1-3.7-0.3-6.1-1.2
			c-2.4-0.9-4.9-2.1-7.6-3.6s-4.9-3-6.8-4.4c-0.9,1.6-2,3.2-3.3,4.9c-1.3,1.7-2.6,3-4,3.6c-2.4-0.3-4.2-0.6-5.3-0.8
			c-1.1-0.2-2.2,0.3-3.3,1.3c-1.4-0.7-2.4-1.4-3.1-2.2c-0.7-0.8-1.4-1.6-2.1-2.3c-0.7-0.8-1.5-1.5-2.3-2.1c-0.9-0.6-2.2-1.2-3.9-1.7
			c0.3-0.9,0.1-2.2-0.8-4c-0.9-1.8-2.1-2.9-3.6-3.3c0.9-1.4,0.5-3.2-1-5.3c-1.6-2.2-2.8-4.6-3.6-7.4c0.2-1.2,0.3-2.5,0.4-3.8
			c0.1-1.3,0.3-2.5,0.5-3.6c0.3-1.1,0.7-2.1,1.2-3c0.5-0.9,1.4-1.5,2.6-1.8c-0.2-2.3-0.9-4.4-2.1-6.5c1.6-1.2,2.6-2.7,3.1-4.6
			c0.5-1.8,1-3.7,1.4-5.6c0.4-1.9,1-3.8,1.7-5.6c0.7-1.8,1.8-3.3,3.4-4.6c-0.3-0.5-0.7-1-1-1.3c-0.3-0.3-0.5-1-0.5-1.8
			c2.6-4.3,4.4-8,5.5-11.1c1-3,1.9-6,2.5-8.9c0.6-2.9,1.3-5.9,2-9.2c0.7-3.3,2.1-7.5,4.2-12.5c-0.2-3.1,0.2-5.9,1-8.3
			c0.9-2.4,1.8-4.8,2.7-7.2c1-2.3,1.7-4.8,2.2-7.4c0.5-2.6,0.4-5.6-0.3-9.1c-3,0.3-5.1,1.4-6.4,3.1c-1.3,1.7-2.1,4.1-2.5,7
			c-1.6,1.4-3.6,2-6,2c-2.4-0.1-4.6,0.2-6.5,0.9c-7.3-3-13.3-7.1-18.1-12.5c-4.8-5.4-8.6-11.7-11.6-19c1.7-4.7,4.5-8.6,8.3-11.8
			c3.8-3.2,8.1-5.9,12.9-8.2c4.8-2.3,9.9-4.1,15.2-5.5c5.4-1.4,10.6-2.6,15.6-3.6c1,0.3,1.6,0.3,1.6,0c0-0.3,0.4-0.2,1.3,0.5
			c6.2-1.9,13.5-3.8,21.6-5.6c8.2-1.8,16.8-2.5,26-2c1.2-0.7,2.7-1.1,4.4-1.2c1.7-0.1,3.6-0.1,5.5-0.1c1.9,0,3.7,0,5.5-0.1
			c1.7-0.1,3.2-0.4,4.4-0.9c1,1.2,2.6,2,4.7,2.2c2.1,0.3,4.3,1.2,6.5,2.7c0.7,0.2,0.7-0.1,0-0.9c-0.7-0.8-0.6-1.3,0.3-1.7
			c2.3,0,4.3,0.5,6,1.6c1.7,1,3.3,2.2,4.8,3.5c1.5,1.3,2.9,2.5,4.2,3.5c1.3,1,2.7,1.6,4.3,1.6c1.6,1.9,3.4,3.7,5.6,5.3
			c2.2,1.7,4.3,3.3,6.2,5.1c2,1.7,3.6,3.6,4.9,5.7s2,4.4,2,7c-0.2,1,0.2,1.7,1,1.8c0.9,0.2,1.5,0.7,1.8,1.6c0.2,6.4-0.8,12-3,16.7
			c-2.2,4.7-4.9,9-8.2,12.9c-3.3,3.9-6.8,7.6-10.5,11.1c-3.7,3.5-7.2,7.2-10.3,11.2c2.1,2.6,4.5,5,7.2,7.2c2.7,2.2,5.4,4.3,8.2,6.4
			c2.8,2.1,5.4,4.3,7.9,6.6c2.5,2.3,4.6,5,6.4,7.9c0.5,1,1.6,1.7,3.4,2.1c0.5,2.1,1.3,4.2,2.2,6.4c1,2.2,1.9,4.3,2.7,6.2
			c0.9,2,1.4,3.8,1.6,5.3c0.2,1.6-0.3,2.9-1.3,3.9c1.2,0.7,1.9,1.8,2.1,3.3C5476,354.3,5476,355.4,5475.8,356.3z"/>
	</g>
	<g>
		<path class="st1" d="M3004.9-2294c5.4-2.8,10.1-6.5,14-11.1c3.9-4.6,6.9-9.8,9.2-15.5c2.2-5.7,3.3-11.5,3.3-17.5
			c0-6.4-1-12.5-3.2-18.3c-2.1-5.8-5-11-8.7-15.5c-3.7-4.5-8.2-8-13.5-10.7c-5.3-2.6-11.1-3.9-17.2-3.9h-88.2v96.6h86.4
			C2993.5-2289.8,2999.5-2291.2,3004.9-2294z"/>
		<path class="st1" d="M3175.7-2281.7c17.6-23.2,14.3-64.3-33.4-107c-39.2-35.1-77.6-63.6-77.6-63.6s-33.1-52.1,48.8-57.6
			c87.2-5.9,14.8-116.7-20.7-26.6c-19.8,50.4-70.2,29.3-98.8,22.9c-28.6-6.4-7.6-32.9-30.6-50.1c-64.4-48-35.2-58-37.9-120.6
			c-2.7-62.5-97.1-46.1-35.6,33c58.8,75.6-17.7,83.1-31.7,86.5c-50.5,12.1-79.2-29.2-123.9-30.9c-59.8-2.3-109.4-13.4-95.4-93.8
			c10.3-99.2-128.2-38.4-58,17.8c86.1,69.2,52.7,123.7,9.2,134.8s-37.8,38.7-63.5,56.5c-89.2,61.7-125.7-87.7-174.4-149.5
			c-48.7-61.8-118.7,14.9-50.1,46.8c68.6,31.9,171.3,130.5,123.6,200.5c-11.1,17-16,32.3-36.2,90.2c-20.2,57.9-49.5-26.6-87.3-76.6
			c-37.8-50-77.1,25.1-17.4,42c59.7,16.9,66.6,70.7,83,121.7c16.3,50.9,65,18.5,65,62c0,18.6-45.4,96.3-56.6,1.1s-105.3-39-29,24.6
			c76.3,63.6,41,53.2,81.7,74.4c40.7,21.2,74.5,16.1,52.4,70.8c-22.2,54.7,62.7,83.2,31-3c-31.7-86.2,27.2-30.7,62.3-31.3
			c35.1-0.5,37.5-21.3,83.3,1.4c45.8,22.7,40.7,30.2,63.3,25.8c38.4-7.4,69.8,47.4,99.2,47.4c29.5,0,28.3-26.9,60.7-42.8
			c32.4-15.9,24.9-29.6,62.5-30.9c37.6-1.3,31.3,26,58.5,24.1s26.6-2.6,35.9-29.7c9.4-27.1,0.5-47,0.5-47s-3.1-64.9,19.1-67.9
			c22.2-3,47.4,42.8,74,75.3c26.6,32.5,73.9-11.8,8.9-41.4c-65-29.5-34.3-60.6-32.5-69.4c14.8-70.9,52.9-1.7,85.7-16.3
			C3216.1-2188.4,3143.6-2239.4,3175.7-2281.7z M2665.9-2179.4h-6v-36.3c-22.2,25.2-47.8,37.8-76.8,37.8c-14.8,0-28.4-3.2-40.7-9.5
			s-22.9-14.5-31.8-24.8c-8.9-10.2-15.8-21.8-20.7-34.7c-4.9-12.9-7.3-25.9-7.3-39.1c0-13.8,2.4-27.2,7.2-40.2
			c4.8-13,11.4-24.5,20-34.7c8.5-10.1,18.7-18.1,30.6-24.1c11.9-6,24.9-9,39.1-9c11,0,20.8,1.2,29.4,3.5c8.6,2.3,16.2,5.5,22.8,9.6
			c6.6,4.1,12.2,9,17,14.7c4.7,5.7,8.7,12,12.1,18.8l-5.7,1.8c-8.2-15-18.7-25.8-31.5-32.4c-12.8-6.6-27.5-9.9-44.1-9.9
			c-14,0-26.6,3-37.8,8.8c-11.2,5.9-20.8,13.7-28.7,23.2c-7.9,9.6-13.9,20.5-18.1,32.7c-4.2,12.2-6.3,24.6-6.3,37.2
			c0,13.4,2.4,26.2,7.3,38.5c4.9,12.3,11.6,23.2,20.2,32.5c8.6,9.4,18.6,16.9,30,22.5c11.4,5.6,23.7,8.4,36.9,8.4
			c14,0,27.3-3.2,39.9-9.6c12.6-6.4,24.9-16.6,36.9-30.6v-50.7h-50.1v-6h56.1V-2179.4z M2833.8-2191.7c-13.3,9.2-31.6,13.8-55,13.8
			c-17.2,0-32.5-2.6-45.8-8c-13.3-5.3-25.7-13.7-37-25l4.5-3.9c10.8,11.2,22.5,19.3,35.2,24.3c12.7,5,27.1,7.5,43.3,7.5
			c21.2,0,38-3.9,50.2-11.8c12.3-7.9,18.5-19.8,18.5-35.8c0-8-1.4-14.7-4.2-20.2c-2.8-5.5-7.1-10.2-12.9-14.2
			c-5.8-4-13.2-7.4-22.2-10.2c-9-2.8-19.6-5.4-31.8-7.8c-11.8-2.2-22.3-4.5-31.4-7.1c-9.1-2.5-16.8-5.7-23.1-9.6
			s-11.1-8.8-14.2-14.7c-3.2-5.9-4.8-13.2-4.8-22c0-9.2,1.7-17.3,5.2-24.5c3.5-7.1,8.5-13.1,15-18c6.5-4.9,14.3-8.6,23.4-11.1
			c9.1-2.5,19.4-3.8,30.8-3.8c13.6,0,25.4,2,35.5,5.8c10.1,3.9,19.4,10.5,27.8,19.7l-3.9,4.2c-8.4-9.2-17.2-15.5-26.2-18.9
			c-9.1-3.4-20-5.1-32.5-5.1c-12.2,0-22.7,1.2-31.4,3.6s-15.9,5.8-21.5,10.3c-5.6,4.5-9.7,9.9-12.3,16.1c-2.6,6.2-3.9,13.2-3.9,21
			c0,7.6,1.3,13.9,3.9,19c2.6,5.1,6.6,9.4,12,12.9c5.4,3.5,12.3,6.5,20.9,9c8.5,2.5,18.6,5,30.4,7.4c11.8,2.4,22.5,5,32.1,7.8
			c9.6,2.8,17.7,6.3,24.5,10.5c6.7,4.2,11.8,9.4,15.4,15.6c3.6,6.2,5.4,14,5.4,23.4C2853.7-2214.2,2847.1-2200.9,2833.8-2191.7z
			 M3042.1-2213.6c-2.8,6.6-6.6,12.5-11.4,17.5c-4.8,5.1-10.5,9.2-17,12.2c-6.5,3-13.4,4.5-20.5,4.5h-98.7v-213h94.2
			c7.4,0,14.1,1.6,20.1,4.8c6,3.2,11.1,7.3,15.3,12.5c4.2,5.1,7.4,10.9,9.8,17.4c2.3,6.5,3.5,13.1,3.5,19.7
			c0,10.8-2.8,20.7-8.2,29.7c-5.5,9-13,15.6-22.3,19.8c6,1.8,11.4,4.5,16.3,8.1c4.9,3.6,9.1,7.8,12.6,12.6c3.5,4.8,6.2,10,8,15.8
			s2.7,11.5,2.7,17.5C3046.3-2227.2,3044.9-2220.2,3042.1-2213.6z"/>
		<path class="st1" d="M3027.4-2268.8c-4-4.6-8.8-8.2-14.2-11c-5.5-2.7-11.5-4-17.8-4h-94.8v98.4h92.7c6.6,0,12.8-1.4,18.4-4.2
			c5.7-2.8,10.7-6.5,15-11.1c4.3-4.6,7.7-9.8,10.1-15.8c2.4-5.9,3.6-11.9,3.6-18.2c0-6.4-1.2-12.5-3.5-18.5
			C3034.6-2258.9,3031.4-2264.2,3027.4-2268.8z"/>
	</g>
	<polygon class="st5" points="2432.9,-3282.7 2439.3,-3282.7 2439.3,-3282.7 2432.9,-3282.7 	"/>
	<path d="M268.3-927.2c0-65.7,43.2-108.9,104.7-108.9c20.4,0,47.7,4.8,63,12.3l-4.2,36.6c-16.2-6.6-39.3-12-57.9-12
		c-43.8,0-63.6,30.6-63.6,71.4c0,42.9,21.9,73.2,65.4,73.2c8.7,0,18.6-1.2,28.8-3.3v-37.5h-23.1v-31.8h61.5v93.6
		c-15.3,8.7-48,15.9-72,15.9C312.1-817.7,268.3-860.9,268.3-927.2z"/>
	<g>
		<path class="st2" d="M2904.3,1335.1l-2.4,3.6h-53.1c4.4-4.6,6.6-10.4,6.6-17.4c0-13-8.5-19.5-25.5-19.5
			c-21.4,0-32.1,6.8-32.1,20.4c0,6.8,3.4,12.2,10.2,16.2c6.8,4,15,7.2,24.8,9.5c9.7,2.3,19.4,5.2,29.2,8.5c9.8,3.4,18.1,9.1,24.9,17
			c3.8,4.5,6.6,9.7,8.3,15.6l9.6-54.6C2904.6,1334.6,2904.4,1334.8,2904.3,1335.1z"/>
		<path class="st2" d="M2978.1,1386.7h-28.5l-7.2,41.4h28.5c0.4,0,0.8,0,1.2,0c9.2,0,16.5-2.1,21.9-6.5c5.4-4.3,8.1-9.5,8.1-15.8
			C3002.1,1393.1,2994.1,1386.7,2978.1,1386.7z"/>
		<path class="st2" d="M2831.4,1399.3c-6.8-4.2-15.1-7.7-24.8-10.5c-9.7-2.8-19.4-6-29.1-9.8c-9.7-3.7-18-9.5-24.8-17.4
			c-2.5-2.9-4.5-6.1-6.1-9.5l-1.7,3h-53.1c5.2-7.2,7.8-15.5,7.8-24.9c0-18-7.5-27-22.5-27c-20.2,0-32.3,11.7-36.3,35.1l-10.2,57.6
			c-1,5.4-1.5,10.7-1.5,15.9c0,13.8,8.1,20.7,24.5,20.7c16.3,0,26.7-8.2,31.3-24.6h-24.6l6-33.3h79.5l-4.8,25.8l-0.7,3.9h42.7
			l-0.6,3.6c-0.4,2-0.6,3.8-0.6,5.4c0,13.8,9.9,20.7,29.9,20.7c19.9,0,29.9-6.2,29.9-18.6
			C2841.6,1408.9,2838.2,1403.5,2831.4,1399.3z"/>
		<path class="st2" d="M2986.2,1305.7h-22.5l-7.8,44.7h22.2c19.2,0,28.8-8.4,28.8-25.2c0-5.8-1.8-10.5-5.2-14.1
			C2998.1,1307.5,2993,1305.7,2986.2,1305.7z"/>
		<path class="st2" d="M3224.6,1345.8c17.6-23.2,14.3-64.3-33.4-107c-39.2-35.2-77.6-63.6-77.6-63.6s-33.1-52.1,48.8-57.6
			c87.2-5.9,14.8-116.7-20.7-26.6c-19.8,50.4-70.2,29.3-98.8,22.9c-28.6-6.4-7.6-32.9-30.6-50.1c-64.4-48-35.2-58-37.9-120.6
			c-2.7-62.5-97.1-46.1-35.6,33c58.8,75.6-17.7,83.1-31.7,86.5c-50.5,12.1-79.2-29.2-123.9-30.9c-59.8-2.3-109.4-13.4-95.4-93.8
			c10.3-99.2-128.2-38.4-58,17.8c86.1,69.2,52.7,123.7,9.2,134.8s-37.8,38.7-63.5,56.5c-89.2,61.7-125.7-87.7-174.4-149.5
			c-48.7-61.8-118.7,14.9-50.1,46.8c68.6,31.9,171.3,130.5,123.6,200.5c-11.1,17-16,32.3-36.2,90.2c-20.2,57.9-49.5-26.6-87.3-76.6
			c-37.8-50-77.1,25.1-17.4,42c59.7,16.9,66.6,70.7,83,121.7c16.3,50.9,65,18.5,65,62c0,18.6-45.4,96.3-56.6,1.1s-105.3-39-29,24.6
			c76.3,63.6,41,53.2,81.7,74.4c40.7,21.2,74.5,16.1,52.4,70.8c-22.2,54.7,62.7,83.2,31-3c-31.7-86.2,27.2-30.7,62.3-31.3
			s37.5-21.3,83.3,1.4c45.8,22.7,40.7,30.2,63.3,25.8c38.4-7.4,69.8,47.4,99.2,47.4c29.5,0,28.3-26.9,60.7-42.8
			c32.4-15.9,24.9-29.6,62.5-30.9s31.3,26,58.5,24.1c27.1-1.9,26.6-2.6,35.9-29.7s0.5-47,0.5-47s-3.1-64.9,19.1-67.9
			c22.2-3,47.4,42.8,74,75.3c26.6,32.5,73.9-11.8,8.9-41.4c-65-29.5-34.3-60.6-32.5-69.4c14.8-70.9,52.9-1.7,85.7-16.3
			C3265,1439.1,3192.5,1388.1,3224.6,1345.8z M3063.3,1315.3l-2.7,14.4c-2.2,11.4-6.5,20.3-12.8,26.7c-6.3,6.4-11.8,9.6-16.6,9.6
			l-0.3,2.4c5.6,0,11.3,3.1,17.1,9.3c5.8,6.2,8.7,13.5,8.7,21.9c0,3.4-0.4,7-1.2,10.8l-1.8,9.3c-3.2,17.2-10.9,30.7-23,40.5
			c-12.1,9.8-29,14.7-50.5,14.7H2880l4.4-24.9c-2.9,4-6.2,7.5-10.1,10.6c-15.2,12.3-38.6,18.5-70.2,18.5c-31.6,0-53.2-5.6-64.8-16.8
			c-5.7-5.5-9.5-12.5-11.4-20.8c-15.3,25.1-43.2,37.6-83.7,37.6c-28.4,0-48-6.6-58.8-19.8c-7.4-9.2-11.1-21.8-11.1-37.8
			c0-7.4,0.8-15.5,2.4-24.3l10.5-60c9.4-53.6,42.2-80.4,98.4-80.4c23.2,0,40.8,5,52.8,14.9c6.6,5.4,11.4,12,14.3,19.7
			c14.1-23,43-34.5,86.8-34.5c23.6,0,41.4,4.5,53.6,13.4c10.3,7.6,16.2,17.7,17.7,30.2l7.3-41.5h87c22.8,0,39,5,48.6,15
			c7.2,7.6,10.8,17.2,10.8,28.8C3064.5,1306.7,3064.1,1310.9,3063.3,1315.3z"/>
	</g>
	<path class="st2" d="M634.4,1088.2c22.8,0,39,5,48.6,15c7.2,7.6,10.8,17.2,10.8,28.8c0,4-0.4,8.2-1.2,12.6l-2.7,14.4
		c-2.2,11.4-6.5,20.3-12.8,26.7c-6.3,6.4-11.8,9.6-16.6,9.6l-0.3,2.4c5.6,0,11.3,3.1,17.1,9.3c5.8,6.2,8.7,13.5,8.7,21.9
		c0,3.4-0.4,7-1.2,10.8l-1.8,9.3c-3.2,17.2-10.9,30.7-23,40.5c-12.1,9.8-29,14.7-50.5,14.7H509.3l38.1-216H634.4z M607.4,1216h-28.5
		l-7.2,41.4h28.5c0.4,0,0.8,0,1.2,0c9.2,0,16.5-2.1,21.9-6.5c5.4-4.3,8.1-9.5,8.1-15.8C631.4,1222.4,623.4,1216,607.4,1216z
		 M615.5,1135H593l-7.8,44.7h22.2c19.2,0,28.8-8.4,28.8-25.2c0-5.8-1.8-10.5-5.2-14.1C627.4,1136.8,622.3,1135,615.5,1135z"/>
	<path class="st2" d="M419.2,1241.4c0,13.8,9.9,20.7,29.9,20.7c19.9,0,29.9-6.2,29.9-18.6c0-6.6-3.4-12-10.2-16.2
		c-6.8-4.2-15.1-7.7-24.8-10.5c-9.7-2.8-19.4-6-29.1-9.8c-9.7-3.7-18-9.5-24.8-17.4c-6.8-7.9-10.2-17.7-10.2-29.5
		c0-50.2,32.3-75.3,96.9-75.3c23.6,0,41.4,4.5,53.6,13.4c12.1,8.9,18.1,21.3,18.1,37c0,5.8-0.8,11.4-2.2,16.7
		c-1.5,5.3-3.1,9.1-4.6,11.2l-2.4,3.6h-53.1c4.4-4.6,6.6-10.4,6.6-17.4c0-13-8.5-19.5-25.5-19.5c-21.4,0-32.1,6.8-32.1,20.4
		c0,6.8,3.4,12.2,10.2,16.2c6.8,4,15,7.2,24.8,9.5c9.7,2.3,19.4,5.2,29.2,8.5c9.8,3.4,18.1,9.1,24.9,17c6.8,7.9,10.2,18.1,10.2,30.8
		c0,25.4-7.6,44.2-22.8,56.5c-15.2,12.3-38.6,18.5-70.2,18.5c-31.6,0-53.2-5.6-64.8-16.8c-8.6-8.4-12.9-20-12.9-34.8
		c0-5.6,0.6-11.7,1.8-18.3l0.9-4.8h54l-0.6,3.6C419.4,1238,419.2,1239.8,419.2,1241.4z"/>
	<path d="M2781.9,1413.4c0,13.8,9.9,20.7,29.9,20.7c19.9,0,29.9-6.2,29.9-18.6c0-6.6-3.4-12-10.2-16.2c-6.8-4.2-15.1-7.7-24.8-10.5
		c-9.7-2.8-19.4-6-29.1-9.8c-9.7-3.7-18-9.5-24.8-17.4c-6.8-7.9-10.2-17.7-10.2-29.5c0-50.2,32.3-75.3,96.9-75.3
		c23.6,0,41.4,4.5,53.6,13.4c12.1,8.9,18.1,21.3,18.1,37c0,5.8-0.8,11.4-2.2,16.7c-1.5,5.3-3.1,9.1-4.6,11.2l-2.4,3.6h-53.1
		c4.4-4.6,6.6-10.4,6.6-17.4c0-13-8.5-19.5-25.5-19.5c-21.4,0-32.1,6.8-32.1,20.4c0,6.8,3.4,12.2,10.2,16.2c6.8,4,15,7.2,24.8,9.5
		c9.7,2.3,19.4,5.2,29.2,8.5c9.8,3.4,18.1,9.1,24.9,17c6.8,7.9,10.2,18.1,10.2,30.8c0,25.4-7.6,44.2-22.8,56.5
		c-15.2,12.3-38.6,18.5-70.2,18.5c-31.6,0-53.2-5.6-64.8-16.8c-8.6-8.4-12.9-20-12.9-34.8c0-5.6,0.6-11.7,1.8-18.3l0.9-4.8h54
		l-0.6,3.6C2782.1,1410,2781.9,1411.8,2781.9,1413.4z"/>
	<g>
		<path class="st2" d="M2904.3,2326.8l-2.4,3.6h-53.1c4.4-4.6,6.6-10.4,6.6-17.4c0-13-8.5-19.5-25.5-19.5
			c-21.4,0-32.1,6.8-32.1,20.4c0,6.8,3.4,12.2,10.2,16.2c6.8,4,15,7.2,24.8,9.5c9.7,2.3,19.4,5.2,29.2,8.5c9.8,3.4,18.1,9.1,24.9,17
			c3.8,4.5,6.6,9.7,8.3,15.6l9.6-54.6C2904.6,2326.4,2904.4,2326.6,2904.3,2326.8z"/>
		<path class="st2" d="M2978.1,2378.4h-28.5l-7.2,41.4h28.5c0.4,0,0.8,0,1.2,0c9.2,0,16.5-2.1,21.9-6.5c5.4-4.3,8.1-9.5,8.1-15.8
			C3002.1,2384.8,2994.1,2378.4,2978.1,2378.4z"/>
		<path class="st2" d="M2831.4,2391c-6.8-4.2-15.1-7.7-24.8-10.5c-9.7-2.8-19.4-6-29.1-9.8c-9.7-3.7-18-9.5-24.8-17.4
			c-2.5-2.9-4.5-6.1-6.1-9.5l-1.7,3h-53.1c5.2-7.2,7.8-15.5,7.8-24.9c0-18-7.5-27-22.5-27c-20.2,0-32.3,11.7-36.3,35.1l-10.2,57.6
			c-1,5.4-1.5,10.7-1.5,15.9c0,13.8,8.1,20.7,24.5,20.7c16.3,0,26.7-8.2,31.3-24.6h-24.6l6-33.3h79.5l-4.8,25.8l-0.7,3.9h42.7
			l-0.6,3.6c-0.4,2-0.6,3.8-0.6,5.4c0,13.8,9.9,20.7,29.9,20.7c19.9,0,29.9-6.2,29.9-18.6C2841.6,2400.6,2838.2,2395.2,2831.4,2391z
			"/>
		<path class="st2" d="M2986.2,2297.4h-22.5l-7.8,44.7h22.2c19.2,0,28.8-8.4,28.8-25.2c0-5.8-1.8-10.5-5.2-14.1
			C2998.1,2299.2,2993,2297.4,2986.2,2297.4z"/>
		<path class="st2" d="M3224.6,2337.5c17.6-23.2,14.3-64.3-33.4-107c-39.2-35.2-77.6-63.6-77.6-63.6s-33.1-52.1,48.8-57.6
			c87.2-5.9,14.8-116.7-20.7-26.6c-19.8,50.4-70.2,29.3-98.8,22.9s-7.6-32.9-30.6-50.1c-64.4-48-35.2-58-37.9-120.6
			c-2.7-62.5-97.1-46.1-35.6,33c58.8,75.6-17.7,83.1-31.7,86.5c-50.5,12.1-79.2-29.2-123.9-30.9c-59.8-2.3-109.4-13.4-95.4-93.8
			c10.3-99.2-128.2-38.4-58,17.8c86.1,69.2,52.7,123.7,9.2,134.8s-37.8,38.7-63.5,56.5c-89.2,61.7-125.7-87.7-174.4-149.5
			c-48.7-61.8-118.7,14.9-50.1,46.8c68.6,31.9,171.3,130.5,123.6,200.5c-11.1,17-16,32.3-36.2,90.2s-49.5-26.6-87.3-76.6
			c-37.8-50-77.1,25.1-17.4,42c59.7,16.9,66.6,70.7,83,121.7c16.3,50.9,65,18.5,65,62c0,18.6-45.4,96.3-56.6,1.1s-105.3-39-29,24.6
			c76.3,63.6,41,53.2,81.7,74.4c40.7,21.2,74.5,16.1,52.4,70.8c-22.2,54.7,62.7,83.2,31-3c-31.7-86.2,27.2-30.7,62.3-31.3
			c35.1-0.5,37.5-21.3,83.3,1.4c45.8,22.7,40.7,30.2,63.3,25.8c38.4-7.4,69.8,47.4,99.2,47.4c29.5,0,28.3-26.9,60.7-42.8
			c32.4-15.9,24.9-29.6,62.5-30.9c37.6-1.3,31.3,26,58.5,24.1c27.1-1.9,26.6-2.6,35.9-29.7s0.5-47,0.5-47s-3.1-64.9,19.1-67.9
			c22.2-3,47.4,42.8,74,75.3c26.6,32.5,73.9-11.8,8.9-41.4c-65-29.5-34.3-60.6-32.5-69.4c14.8-70.9,52.9-1.7,85.7-16.3
			C3265,2430.9,3192.5,2379.9,3224.6,2337.5z M3063.3,2307l-2.7,14.4c-2.2,11.4-6.5,20.3-12.8,26.7c-6.3,6.4-11.8,9.6-16.6,9.6
			l-0.3,2.4c5.6,0,11.3,3.1,17.1,9.3c5.8,6.2,8.7,13.5,8.7,21.9c0,3.4-0.4,7-1.2,10.8l-1.8,9.3c-3.2,17.2-10.9,30.7-23,40.5
			c-12.1,9.8-29,14.7-50.5,14.7H2880l4.4-24.9c-2.9,4-6.2,7.5-10.1,10.6c-15.2,12.3-38.6,18.5-70.2,18.5c-31.6,0-53.2-5.6-64.8-16.8
			c-5.7-5.5-9.5-12.5-11.4-20.8c-15.3,25.1-43.2,37.6-83.7,37.6c-28.4,0-48-6.6-58.8-19.8c-7.4-9.2-11.1-21.8-11.1-37.8
			c0-7.4,0.8-15.5,2.4-24.3l10.5-60c9.4-53.6,42.2-80.4,98.4-80.4c23.2,0,40.8,5,52.8,14.9c6.6,5.4,11.4,12,14.3,19.7
			c14.1-23,43-34.5,86.8-34.5c23.6,0,41.4,4.5,53.6,13.4c10.3,7.6,16.2,17.7,17.7,30.2l7.3-41.5h87c22.8,0,39,5,48.6,15
			c7.2,7.6,10.8,17.2,10.8,28.8C3064.5,2298.4,3064.1,2302.6,3063.3,2307z"/>
	</g>
	<path class="st2" d="M286.5,1307.1c-28.4,0-48-6.6-58.8-19.8c-7.4-9.2-11.1-21.8-11.1-37.8c0-7.4,0.8-15.5,2.4-24.3l10.5-60
		c9.4-53.6,42.2-80.4,98.4-80.4c23.2,0,40.8,5,52.8,14.9s18,23.5,18,40.6c0,7-1,14.1-2.9,21.3c-1.9,7.2-3.8,12.6-5.5,16.2l-3,5.4
		h-53.1c5.2-7.2,7.8-15.5,7.8-24.9c0-18-7.5-27-22.5-27c-20.2,0-32.3,11.7-36.3,35.1L273,1224c-1,5.4-1.5,10.7-1.5,15.9
		c0,13.8,8.1,20.7,24.5,20.7c16.3,0,26.7-8.2,31.3-24.6h-24.6l6-33.3h79.5l-4.8,25.8l-1.5,8.7
		C373.5,1283.8,341.7,1307.1,286.5,1307.1z"/>
	<path class="st3" d="M3995.5,1568.9c22.8,0,39,5,48.6,15c7.2,7.6,10.8,17.2,10.8,28.8c0,4-0.4,8.2-1.2,12.6l-2.7,14.4
		c-2.2,11.4-6.5,20.3-12.8,26.7c-6.3,6.4-11.8,9.6-16.6,9.6l-0.3,2.4c5.6,0,11.3,3.1,17.1,9.3c5.8,6.2,8.7,13.5,8.7,21.9
		c0,3.4-0.4,7-1.2,10.8l-1.8,9.3c-3.2,17.2-10.9,30.7-23,40.5c-12.1,9.8-29,14.7-50.5,14.7h-100.2l38.1-216H3995.5z M3968.5,1696.7
		H3940l-7.2,41.4h28.5c0.4,0,0.8,0,1.2,0c9.2,0,16.5-2.1,21.9-6.5c5.4-4.3,8.1-9.5,8.1-15.8
		C3992.5,1703.1,3984.5,1696.7,3968.5,1696.7z M3976.6,1615.7h-22.5l-7.8,44.7h22.2c19.2,0,28.8-8.4,28.8-25.2
		c0-5.8-1.8-10.5-5.2-14.1C3988.5,1617.5,3983.4,1615.7,3976.6,1615.7z"/>
	<path class="st3" d="M3925.7,1722.4c0,13.8,9.9,20.7,29.9,20.7c19.9,0,29.9-6.2,29.9-18.6c0-6.6-3.4-12-10.2-16.2
		c-6.8-4.2-15.1-7.7-24.8-10.5c-9.7-2.8-19.4-6-29.1-9.8c-9.7-3.7-18-9.5-24.8-17.4c-6.8-7.9-10.2-17.7-10.2-29.5
		c0-50.2,32.3-75.3,96.9-75.3c23.6,0,41.4,4.5,53.6,13.4c12.1,8.9,18.1,21.3,18.1,37c0,5.8-0.8,11.4-2.2,16.7
		c-1.5,5.3-3.1,9.1-4.6,11.2l-2.4,3.6h-53.1c4.4-4.6,6.6-10.4,6.6-17.4c0-13-8.5-19.5-25.5-19.5c-21.4,0-32.1,6.8-32.1,20.4
		c0,6.8,3.4,12.2,10.2,16.2c6.8,4,15,7.2,24.8,9.5c9.7,2.3,19.4,5.2,29.2,8.5c9.8,3.4,18.1,9.1,24.9,17c6.8,7.9,10.2,18.1,10.2,30.8
		c0,25.4-7.6,44.2-22.8,56.5c-15.2,12.3-38.6,18.5-70.2,18.5c-31.6,0-53.2-5.6-64.8-16.8c-8.6-8.4-12.9-20-12.9-34.8
		c0-5.6,0.6-11.7,1.8-18.3l0.9-4.8h54l-0.6,3.6C3925.9,1719,3925.7,1720.8,3925.7,1722.4z"/>
	<path class="st3" d="M3941.5,1788.1c-28.4,0-48-6.6-58.8-19.8c-7.4-9.2-11.1-21.8-11.1-37.8c0-7.4,0.8-15.5,2.4-24.3l10.5-60
		c9.4-53.6,42.2-80.4,98.4-80.4c23.2,0,40.8,5,52.8,14.9s18,23.5,18,40.6c0,7-1,14.1-2.9,21.3c-1.9,7.2-3.8,12.6-5.5,16.2l-3,5.4
		h-53.1c5.2-7.2,7.8-15.5,7.8-24.9c0-18-7.5-27-22.5-27c-20.2,0-32.3,11.7-36.3,35.1L3928,1705c-1,5.4-1.5,10.7-1.5,15.9
		c0,13.8,8.1,20.7,24.5,20.7c16.3,0,26.7-8.2,31.3-24.6h-24.6l6-33.3h79.5l-4.8,25.8l-1.5,8.7
		C4028.5,1764.8,3996.7,1788.1,3941.5,1788.1z"/>
	<path class="st4" d="M1142.5,1623l-114.8-2.4l6.5-18c0,0-32.2,11.8-67.5,11.5s-64.5-12-73.2-26.2c-11,19-60.1,31.1-96.7,27.4
		s-67.6-26-57-82.7"/>
	<path class="st2" d="M614.6,1290.6c-14.4,0-367.4-25.4-367.4-25.4l-23.9-32.5l-4.3-7.5l-13.1,82.4c0,0,373.4,0.4,410.5,0.4
		c37.1,0,56.2-21.5,65.5-54.2l-14.1,4.8C667.8,1258.8,644.4,1290.6,614.6,1290.6z"/>
	<path class="st5" d="M1190.7,1301.4c-14.4,0-367.4-25.4-367.4-25.4l-6.8-39.7l-21.4-0.2l-13.1,82.4c0,0,373.4,0.4,410.5,0.4
		c37.1,0,56.2-21.5,65.5-54.2l-14.1,4.8C1243.9,1269.5,1220.5,1301.4,1190.7,1301.4z"/>
	<path class="st2" d="M1221.7,1088.2c22.8,0,39,5,48.6,15c7.2,7.6,10.8,17.2,10.8,28.8c0,4-0.4,8.2-1.2,12.6l-2.7,14.4
		c-2.2,11.4-6.5,20.3-12.8,26.7c-6.3,6.4-11.8,9.6-16.6,9.6l-0.3,2.4c5.6,0,11.3,3.1,17.1,9.3c5.8,6.2,8.7,13.5,8.7,21.9
		c0,3.4-0.4,7-1.2,10.8l-1.8,9.3c-3.2,17.2-10.9,30.7-23,40.5c-12.1,9.8-29,14.7-50.5,14.7h-100.2l38.1-216H1221.7z M1194.7,1216
		h-28.5l-7.2,41.4h28.5c0.4,0,0.8,0,1.2,0c9.2,0,16.5-2.1,21.9-6.5c5.4-4.3,8.1-9.5,8.1-15.8C1218.7,1222.4,1210.7,1216,1194.7,1216
		z M1202.8,1135h-22.5l-7.8,44.7h22.2c19.2,0,28.8-8.4,28.8-25.2c0-5.8-1.8-10.5-5.2-14.1C1214.8,1136.8,1209.6,1135,1202.8,1135z"
		/>
	<path class="st2" d="M1006.5,1241.4c0,13.8,9.9,20.7,29.9,20.7c19.9,0,29.9-6.2,29.9-18.6c0-6.6-3.4-12-10.2-16.2
		c-6.8-4.2-15.1-7.7-24.8-10.5c-9.7-2.8-19.4-6-29.1-9.8c-9.7-3.7-18-9.5-24.8-17.4c-6.8-7.9-10.2-17.7-10.2-29.5
		c0-50.2,32.3-75.3,96.9-75.3c23.6,0,41.4,4.5,53.6,13.4c12.1,8.9,18.1,21.3,18.1,37c0,5.8-0.8,11.4-2.2,16.7
		c-1.5,5.3-3.1,9.1-4.6,11.2l-2.4,3.6h-53.1c4.4-4.6,6.6-10.4,6.6-17.4c0-13-8.5-19.5-25.5-19.5c-21.4,0-32.1,6.8-32.1,20.4
		c0,6.8,3.4,12.2,10.2,16.2c6.8,4,15,7.2,24.8,9.5c9.7,2.3,19.4,5.2,29.2,8.5c9.8,3.4,18.1,9.1,24.9,17c6.8,7.9,10.2,18.1,10.2,30.8
		c0,25.4-7.6,44.2-22.8,56.5c-15.2,12.3-38.6,18.5-70.2,18.5c-31.6,0-53.2-5.6-64.8-16.8c-8.6-8.4-12.9-20-12.9-34.8
		c0-5.6,0.6-11.7,1.8-18.3l0.9-4.8h54l-0.6,3.6C1006.7,1238,1006.5,1239.8,1006.5,1241.4z"/>
	<path class="st2" d="M873.8,1307.1c-28.4,0-48-6.6-58.8-19.8c-7.4-9.2-11.1-21.8-11.1-37.8c0-7.4,0.8-15.5,2.4-24.3l10.5-60
		c9.4-53.6,42.2-80.4,98.4-80.4c23.2,0,40.8,5,52.8,14.9s18,23.5,18,40.6c0,7-1,14.1-2.9,21.3c-1.9,7.2-3.8,12.6-5.5,16.2l-3,5.4
		h-53.1c5.2-7.2,7.8-15.5,7.8-24.9c0-18-7.5-27-22.5-27c-20.2,0-32.3,11.7-36.3,35.1l-10.2,57.6c-1,5.4-1.5,10.7-1.5,15.9
		c0,13.8,8.1,20.7,24.5,20.7c16.3,0,26.7-8.2,31.3-24.6H890l6-33.3h79.5l-4.8,25.8l-1.5,8.7C960.8,1283.8,929,1307.1,873.8,1307.1z"
		/>
	<path class="st2" d="M1202,1290.6c-14.4,0-367.4-25.4-367.4-25.4l-23.9-32.5l-4.3-7.5l-13.1,82.4c0,0,373.4,0.4,410.5,0.4
		c37.1,0,56.2-21.5,65.5-54.2l-14.1,4.8C1255.1,1258.8,1231.7,1290.6,1202,1290.6z"/>
	<polyline class="st4" points="148.5,1408.8 122,1567.1 548,1567.1 	"/>
	<polyline class="st4" points="136,1421.4 109.6,1576.5 535.7,1576.5 	"/>
	<polygon class="st2" points="204.2,1673.5 204.2,1677.9 639.4,1677.9 	"/>
	<path class="st2" d="M245.9,1673.5c0,0,406.4,0,435.1,0c25.8-0.7,37.5-45.1,37.5-45.1l3.8,1.1c0,0-12.5,48.4-41.3,48.4"/>
	<path class="st2" d="M822,1314.7c0,0,0.5,4.2-4.7,11.7c-5.2,7.4-1,12.5,2.9,13c3.9,0.5,9.9-5.6,7-11.6
		C824.3,1321.7,822,1314.7,822,1314.7z"/>
	<path class="st2" d="M932.7,1312.5c0,0,0.3,2.9-3.2,7.9c-3.5,5-0.7,8.4,2,8.7c2.6,0.3,6.7-3.8,4.7-7.8
		C934.3,1317.2,932.7,1312.5,932.7,1312.5z"/>
	<path class="st6" d="M819.7,1185.9c0,0,12.5,3,10.3,27.4c-2.3,24.4-10,31-10.1,41.3c-0.2,10.3,11.2,10.2,14-1.3
		c2.7-11.5-0.4-28.5,0.4-40c0.3-3.6,2.8-17.7,4.5-18.4c1.7-0.7,3.1,9.8,3,15.9c-0.1,6-2.9,14.5-2,16.5s3.5,3.3,5.1,0.2
		c1.6-3.2-0.3-9.9-0.5-16.2c-0.2-6.3,0.5-16.4,2.5-20.6c2-4.3,6.7-6.2,6.7-6.2"/>
	<path class="st6" d="M937,1150c4.9,2.7,6.1,8,4.9,16.2c-1.2,8.2-1.9,7.3-4.6,16.4c-2.6,9.1,11.7,11.1,9.4-1.2
		c-2.3-12.3-1.9-13.7-2.1-19.8c-0.2-6.1,2.5-10.4,5.9-12.2"/>
	<path class="st6" d="M864.1,1104.6c3.8,0.2,5.2,1.8,5.8,5.8c0.6,4-0.2,6.1-1.7,11.5c-1.6,5.4,6.4,4.5,4.6-0.5s-0.6-11.7,1.9-13
		c2.5-1.3,7.9-0.8,7.9-0.8"/>
	<path class="st6" d="M929.8,1241.6c4.2,2.9,7,16.4,5.3,24.6c-1.8,8.2-4.1,11.5-3.8,15.2s5.1,5.1,7.8,1c2.7-4.1-1.1-19.4-1.1-27.7
		c0.1-8.3,5.6-13.2,5.6-13.2"/>
	<path class="st7" d="M1785.8,1301.4c-14.4,0-367.4-25.4-367.4-25.4l-6.8-39.7l-21.4-0.2l-13.1,82.4c0,0,373.4,0.4,410.5,0.4
		s56.2-21.5,65.5-54.2l-14.1,4.8C1838.9,1269.5,1815.6,1301.4,1785.8,1301.4z"/>
	<path class="st2" d="M1816.8,1088.2c22.8,0,39,5,48.6,15c7.2,7.6,10.8,17.2,10.8,28.8c0,4-0.4,8.2-1.2,12.6l-2.7,14.4
		c-2.2,11.4-6.5,20.3-12.8,26.7c-6.3,6.4-11.8,9.6-16.6,9.6l-0.3,2.4c5.6,0,11.3,3.1,17.1,9.3c5.8,6.2,8.7,13.5,8.7,21.9
		c0,3.4-0.4,7-1.2,10.8l-1.8,9.3c-3.2,17.2-10.9,30.7-23,40.5c-12.1,9.8-29,14.7-50.5,14.7h-100.2l38.1-216H1816.8z M1789.8,1216
		h-28.5l-7.2,41.4h28.5c0.4,0,0.8,0,1.2,0c9.2,0,16.5-2.1,21.9-6.5c5.4-4.3,8.1-9.5,8.1-15.8C1813.8,1222.4,1805.8,1216,1789.8,1216
		z M1797.9,1135h-22.5l-7.8,44.7h22.2c19.2,0,28.8-8.4,28.8-25.2c0-5.8-1.8-10.5-5.2-14.1C1809.9,1136.8,1804.7,1135,1797.9,1135z"
		/>
	<path class="st2" d="M1601.6,1241.4c0,13.8,9.9,20.7,29.9,20.7c19.9,0,29.9-6.2,29.9-18.6c0-6.6-3.4-12-10.2-16.2
		c-6.8-4.2-15.1-7.7-24.8-10.5c-9.7-2.8-19.4-6-29.1-9.8c-9.7-3.7-18-9.5-24.8-17.4c-6.8-7.9-10.2-17.7-10.2-29.5
		c0-50.2,32.3-75.3,96.9-75.3c23.6,0,41.4,4.5,53.6,13.4c12.1,8.9,18.1,21.3,18.1,37c0,5.8-0.8,11.4-2.2,16.7
		c-1.5,5.3-3.1,9.1-4.6,11.2l-2.4,3.6h-53.1c4.4-4.6,6.6-10.4,6.6-17.4c0-13-8.5-19.5-25.5-19.5c-21.4,0-32.1,6.8-32.1,20.4
		c0,6.8,3.4,12.2,10.2,16.2c6.8,4,15,7.2,24.8,9.5c9.7,2.3,19.4,5.2,29.2,8.5c9.8,3.4,18.1,9.1,24.9,17c6.8,7.9,10.2,18.1,10.2,30.8
		c0,25.4-7.6,44.2-22.8,56.5c-15.2,12.3-38.6,18.5-70.2,18.5c-31.6,0-53.2-5.6-64.8-16.8c-8.6-8.4-12.9-20-12.9-34.8
		c0-5.6,0.6-11.7,1.8-18.3l0.9-4.8h54l-0.6,3.6C1601.8,1238,1601.6,1239.8,1601.6,1241.4z"/>
	<path class="st2" d="M1468.9,1307.1c-28.4,0-48-6.6-58.8-19.8c-7.4-9.2-11.1-21.8-11.1-37.8c0-7.4,0.8-15.5,2.4-24.3l10.5-60
		c9.4-53.6,42.2-80.4,98.4-80.4c23.2,0,40.8,5,52.8,14.9s18,23.5,18,40.6c0,7-1,14.1-2.9,21.3c-1.9,7.2-3.8,12.6-5.5,16.2l-3,5.4
		h-53.1c5.2-7.2,7.8-15.5,7.8-24.9c0-18-7.5-27-22.5-27c-20.2,0-32.3,11.7-36.3,35.1l-10.2,57.6c-1,5.4-1.5,10.7-1.5,15.9
		c0,13.8,8.1,20.7,24.5,20.7c16.3,0,26.7-8.2,31.3-24.6h-24.6l6-33.3h79.5l-4.8,25.8l-1.5,8.7
		C1555.9,1283.8,1524.1,1307.1,1468.9,1307.1z"/>
	<path class="st2" d="M1797,1290.6c-14.4,0-367.4-25.4-367.4-25.4l-23.9-32.5l-4.3-7.5l-13.1,82.4c0,0,373.4,0.4,410.5,0.4
		c37.1,0,56.2-21.5,65.5-54.2l-14.1,4.8C1850.2,1258.8,1826.8,1290.6,1797,1290.6z"/>
	<g>
		<path class="st2" d="M855,33.7c43.9,0,75,9.6,93.5,28.9c13.8,14.6,20.8,33.1,20.8,55.4c0,7.7-0.8,15.8-2.3,24.2l-5.2,27.7
			c-4.2,21.9-12.4,39.1-24.5,51.4c-12.1,12.3-22.8,18.5-32,18.5l-0.6,4.6c10.8,0,21.7,6,32.9,17.9c11.2,11.9,16.7,26,16.7,42.1
			c0,6.5-0.8,13.5-2.3,20.8l-3.5,17.9c-6.2,33.1-20.9,59.1-44.1,77.9c-23.3,18.9-55.7,28.3-97.2,28.3H614.3l73.3-415.5H855z
			 M803.1,279.5h-54.8l-13.9,79.6h54.8c0.8,0,1.5,0,2.3,0c17.7,0,31.7-4.1,42.1-12.4c10.4-8.3,15.6-18.4,15.6-30.3
			C849.2,291.8,833.8,279.5,803.1,279.5z M818.6,123.7h-43.3l-15,86h42.7c36.9,0,55.4-16.2,55.4-48.5c0-11.2-3.4-20.2-10.1-27.1
			C841.6,127.1,831.7,123.7,818.6,123.7z"/>
		<path class="st2" d="M441,328.4c0,26.5,19.1,39.8,57.4,39.8c38.3,0,57.4-11.9,57.4-35.8c0-12.7-6.5-23.1-19.6-31.2
			c-13.1-8.1-29-14.8-47.6-20.2c-18.7-5.4-37.3-11.6-56-18.8c-18.7-7.1-34.5-18.3-47.6-33.5c-13.1-15.2-19.6-34.1-19.6-56.8
			c0-96.6,62.1-144.9,186.4-144.9c45.4,0,79.7,8.6,103,25.7c23.3,17.1,34.9,40.9,34.9,71.3c0,11.2-1.4,21.8-4.3,32
			c-2.9,10.2-5.9,17.4-8.9,21.6l-4.6,6.9H569.7c8.5-8.8,12.7-20,12.7-33.5c0-25-16.4-37.5-49.1-37.5c-41.2,0-61.8,13.1-61.8,39.2
			c0,13.1,6.5,23.5,19.6,31.2c13.1,7.7,28.9,13.8,47.6,18.2c18.7,4.4,37.4,9.9,56.3,16.4c18.8,6.5,34.8,17.4,47.9,32.6
			c13.1,15.2,19.6,34.9,19.6,59.2c0,48.9-14.6,85.1-43.9,108.8c-29.2,23.7-74.3,35.5-135,35.5c-60.8,0-102.3-10.8-124.7-32.3
			c-16.5-16.2-24.8-38.5-24.8-66.9c0-10.8,1.2-22.5,3.5-35.2l1.7-9.2h103.9l-1.2,6.9C441.4,321.9,441,325.4,441,328.4z"/>
		<path class="st2" d="M185.8,454.8c-54.6,0-92.3-12.7-113.1-38.1C58.4,399,51.3,374.8,51.3,344c0-14.2,1.5-29.8,4.6-46.7
			l20.2-115.4C94.2,78.7,157.3,27.2,265.4,27.2c44.6,0,78.5,9.5,101.6,28.6s34.6,45.1,34.6,78.2c0,13.5-1.8,27.1-5.5,41
			c-3.7,13.9-7.2,24.2-10.7,31.2l-5.8,10.4H277.5c10-13.9,15-29.8,15-47.9c0-34.6-14.4-51.9-43.3-51.9c-38.9,0-62.1,22.5-69.8,67.5
			L159.8,295c-1.9,10.4-2.9,20.6-2.9,30.6c0,26.5,15.7,39.8,47,39.8c31.4,0,51.5-15.8,60.3-47.3h-47.3l11.5-64.1h152.9l-9.2,49.6
			l-2.9,16.7C353.1,410,291.9,454.8,185.8,454.8z"/>
		<path class="st2" d="M816.9,423.1c-27.7,0-706.7-48.9-706.7-48.9l-46-62.5l-8.3-14.3L30.7,455.8c0,0,718.4,0.9,789.7,0.9
			s108.1-41.4,126-104.2l-27.2,9.3C919.2,361.8,874.3,423.1,816.9,423.1z"/>
	</g>
</g>
</svg>
